<?xml version="1.0" standalone="no"?>
<!DOCTYPE svg PUBLIC "-//W3C//DTD SVG 20010904//EN"
 "http://www.w3.org/TR/2001/REC-SVG-20010904/DTD/svg10.dtd">
<svg version="1.0" xmlns="http://www.w3.org/2000/svg"
 width="300.000000pt" height="300.000000pt" viewBox="0 0 300.000000 300.000000"
 preserveAspectRatio="xMidYMid meet">
<metadata>
Created by potrace 1.11, written by Peter Selinger 2001-2013
</metadata>
<g transform="translate(0.000000,300.000000) scale(0.100000,-0.100000)"
fill="#000000" stroke="none">
<path d="M0 1500 l0 -1500 1500 0 1500 0 0 1500 0 1500 -1500 0 -1500 0 0
-1500z m2508 1008 c17 -17 17 -1999 0 -2016 -17 -17 -1999 -17 -2016 0 -17 17
-17 1999 0 2016 17 17 1999 17 2016 0z"/>
<path d="M555 2438 c-3 -7 -4 -434 -3 -948 l3 -935 945 0 945 0 0 945 0 945
-943 3 c-749 2 -944 0 -947 -10z m1121 -253 c119 -21 229 -75 315 -154 51 -46
69 -70 77 -101 24 -97 -40 -180 -138 -180 -49 0 -70 11 -138 72 -65 59 -122
81 -218 81 -69 1 -89 -3 -137 -27 -155 -75 -248 -264 -219 -442 23 -138 105
-255 219 -310 48 -24 68 -28 137 -27 96 0 153 22 218 81 68 61 89 72 138 72
61 0 106 -29 131 -85 17 -38 18 -50 8 -90 -16 -62 -114 -152 -224 -205 -401
-194 -852 74 -914 543 -53 401 239 763 635 786 12 0 61 -6 110 -14z"/>
</g>
</svg>
